<?xml version="1.0" encoding="UTF-8" standalone="no"?>
<!-- Created with Inkscape (http://www.inkscape.org/) -->

<svg
   width="8mm"
   height="8mm"
   viewBox="0 0 8 8"
   version="1.1"
   id="svg1"
   inkscape:version="1.3 (0e150ed, 2023-07-21)"
   sodipodi:docname="loop-icon.svg"
   xmlns:inkscape="http://www.inkscape.org/namespaces/inkscape"
   xmlns:sodipodi="http://sodipodi.sourceforge.net/DTD/sodipodi-0.dtd"
   xmlns="http://www.w3.org/2000/svg"
   xmlns:svg="http://www.w3.org/2000/svg">
  <sodipodi:namedview
     id="namedview1"
     pagecolor="#e0e0e0"
     bordercolor="#ffffff"
     borderopacity="1"
     inkscape:showpageshadow="0"
     inkscape:pageopacity="0"
     inkscape:pagecheckerboard="false"
     inkscape:deskcolor="#404040"
     inkscape:document-units="mm"
     inkscape:zoom="10.260794"
     inkscape:cx="8.3326885"
     inkscape:cy="14.375106"
     inkscape:current-layer="layer1"
     showgrid="false" />
  <defs
     id="defs1" />
  <g
     inkscape:label="Layer 1"
     inkscape:groupmode="layer"
     id="layer1">
    <path
       style="fill:#ffffff;stroke-width:0.999997"
       d="M 3.7147923,7.2691955 C 2.7648185,7.1937813 1.8634921,6.7011234 1.2908603,5.9442538 1.2538035,5.8952394 1.2204057,5.851175 1.2166496,5.8461959 1.2128643,5.841343 0.97861138,6.0682747 0.69602549,6.3507045 L 0.18223321,6.8642105 V 5.592835 4.3214501 H 1.4389129 c 0.691174,0 1.2566798,0.0068 1.2566798,0.015044 0,0.00873 -0.1959227,0.2107814 -0.4353847,0.450059 -0.2394621,0.2392777 -0.4353858,0.4410327 -0.4353858,0.4483411 0,0.00776 0.051868,0.083276 0.1152707,0.1687649 0.3774924,0.5091286 0.9121105,0.8498999 1.551698,0.9890718 0.230818,0.05018 0.7516615,0.049694 0.9849235,-9.318e-4 C 5.2656618,6.220433 5.9033314,5.7291145 6.2491751,5.0261219 6.3083612,4.9058181 6.356787,4.7960162 6.356787,4.7821272 c 0,-0.019703 0.097422,-0.025235 0.4456563,-0.025235 h 0.4456575 l -0.013132,0.05445 C 7.1751129,5.0594225 6.9814692,5.4837416 6.8037216,5.7563296 6.3561686,6.4426865 5.6234306,6.9694992 4.837091,7.1702738 4.4864013,7.2598586 4.0644533,7.2970318 3.7147913,7.2692829 Z M 5.2683246,3.475248 c 0,-0.00776 0.1959237,-0.2107814 0.4353858,-0.450059 0.239462,-0.239268 0.4353856,-0.4410229 0.4353856,-0.4483411 0,-0.00776 -0.05376,-0.085799 -0.1194747,-0.174433 C 5.6448484,1.8969551 5.1117765,1.5582025 4.4721279,1.419021 4.241701,1.3688419 3.7204314,1.3693272 3.4880051,1.4197877 2.852167,1.5579502 2.3186991,1.8974598 1.9445484,2.4020752 1.8296674,2.557019 1.6071323,2.9690408 1.6071323,3.0268001 c 0,0.023391 -0.074046,0.02805 -0.4452808,0.02805 -0.25185251,0 -0.4452798,-0.00776 -0.4452798,-0.017859 0,-0.0098 0.0319714,-0.1100152 0.0710461,-0.2226418 0.2940578,-0.8474929 0.8855995,-1.5237654 1.68385,-1.92502351 1.4488948,-0.72833462 3.2230453,-0.3153131 4.2015941,0.97812361 0.037056,0.049015 0.070445,0.093078 0.07421,0.098058 0.00378,0.00485 0.2380382,-0.2220789 0.5206232,-0.5045086 L 7.781689,0.94749272 V 2.2188682 3.4902531 H 6.5250092 c -0.6911739,0 -1.2566807,-0.0068 -1.2566807,-0.015044 z"
       id="path129" />
  </g>
</svg>
