<?xml version="1.0" encoding="UTF-8" standalone="no"?>
<!-- Created with Inkscape (http://www.inkscape.org/) -->

<svg
   width="29mm"
   height="8mm"
   viewBox="0 0 29 8"
   version="1.1"
   id="svg1"
   inkscape:version="1.3 (0e150ed, 2023-07-21)"
   sodipodi:docname="score-icon.svg"
   xmlns:inkscape="http://www.inkscape.org/namespaces/inkscape"
   xmlns:sodipodi="http://sodipodi.sourceforge.net/DTD/sodipodi-0.dtd"
   xmlns="http://www.w3.org/2000/svg"
   xmlns:svg="http://www.w3.org/2000/svg">
  <sodipodi:namedview
     id="namedview1"
     pagecolor="#e0e0e0"
     bordercolor="#ffffff"
     borderopacity="1"
     inkscape:showpageshadow="0"
     inkscape:pageopacity="0"
     inkscape:pagecheckerboard="false"
     inkscape:deskcolor="#404040"
     inkscape:document-units="mm"
     inkscape:zoom="10.260794"
     inkscape:cx="67.928469"
     inkscape:cy="35.523568"
     inkscape:current-layer="layer1" />
  <defs
     id="defs1" />
  <g
     inkscape:label="Layer 1"
     inkscape:groupmode="layer"
     id="layer1">
    <path
       style="fill:#ffffff;stroke-width:0.999999"
       d="m 14.374352,7.8609312 c -1.236134,-0.0383 -2.373269,-0.67232 -3.061798,-1.70703 -0.348623,-0.5239 -0.562093,-1.12786 -0.619026,-1.75135 -0.01256,-0.13753 -0.01575,-0.21017 -0.01575,-0.35682 0,-0.18431 0.0098,-0.33864 0.03216,-0.50428 0.07856,-0.58312 0.282184,-1.12324 0.607301,-1.61087 0.489862,-0.73473 1.225905,-1.28253004 2.064946,-1.53684004 0.759538,-0.23022 1.571332,-0.21884 2.322992,0.0326 0.609836,0.20398 1.158914,0.56026 1.596836,1.03615004 0.363963,0.39553 0.642045,0.86585 0.811581,1.37262 0.316691,0.94665 0.248517,1.98715 -0.188826,2.88189 -0.454745,0.93034 -1.267757,1.63834 -2.248721,1.95826 -0.416003,0.13567 -0.862212,0.19932 -1.301675,0.18569 z m 0.403563,-2.82655 c 0.941456,-0.54364 1.710542,-0.98959 1.70908,-0.99099 -0.0034,-0.003 -3.433954,-1.98385 -3.436252,-1.98385 -0.0011,0 -0.0019,0.89384 -0.0019,1.98631 v 1.98631 l 0.0086,-0.005 c 0.0047,-0.003 0.778866,-0.44947 1.720322,-0.99311 z m -10.7113768,2.81924 c -1.244555,-0.0344 -2.386843,-0.66845 -3.07844301,-1.70882 -0.324367,-0.48795 -0.530473,-1.04136 -0.60412,-1.62209 -0.02238,-0.17657 -0.02915,-0.28871 -0.02915,-0.48426 0,-0.15881 0.0027,-0.22157 0.01442,-0.35136 0.05601,-0.61294 0.261627,-1.20694 0.5959,-1.72149 0.18320501,-0.28201 0.40192301,-0.53859 0.64868201,-0.76097 0.584705,-0.52694004 1.308194,-0.85787004 2.086755,-0.95449004 0.165441,-0.0206 0.280057,-0.0272 0.469697,-0.0272 0.19555,0 0.307688,0.007 0.484256,0.0292 0.480227,0.0609 0.949932,0.21519 1.370858,0.45032 0.732946,0.40942004 1.317749,1.05557004 1.648407,1.82133004 0.246333,0.57048 0.35034,1.19664 0.301132,1.81289 -0.05812,0.72796 -0.315573,1.4094 -0.751771,1.98989 -0.119396,0.1589 -0.204877,0.25684 -0.356413,0.40837 -0.151533,0.15153 -0.249473,0.23702 -0.408365,0.35641 -0.327511,0.2461 -0.69437,0.43887 -1.081097,0.56807 -0.415987,0.13898 -0.870812,0.20638 -1.310777,0.19422 z m -0.535234,-3.81881 v -1.85876 h -0.497005 -0.497001 v 1.85876 1.85876 h 0.497001 0.497005 z m 2.29022,-0.002 v -1.85694 h -0.495182 -0.495182 v 1.85694 1.85693 h 0.495182 0.495182 z m 18.8733848,3.82067 c -0.27787,-0.0134 -0.50603,-0.0459 -0.76098,-0.10862 -0.56132,-0.13797 -1.08694,-0.40516 -1.53376,-0.77965 -0.124898,-0.10468 -0.293828,-0.26851 -0.39938,-0.38731 -0.218595,-0.24604 -0.409491,-0.5261 -0.557172,-0.81742 -0.523556,-1.03276 -0.546529,-2.25962 -0.06204,-3.31335 0.338641,-0.73653 0.903383,-1.3457 1.618422,-1.74574004 0.0837,-0.0468 0.2644,-0.13543 0.35136,-0.17229 0.4001,-0.1696 0.7788,-0.26081 1.23614,-0.29773 0.0786,-0.006 0.35902,-0.009 0.45385,-0.004 0.52999,0.0275 1.02878,0.15725 1.49957,0.39011 0.75093,0.3714 1.36139,0.98246004 1.733,1.73471004 0.22942,0.46442 0.35668,0.95026 0.38816,1.4819 0.005,0.0894 0.005,0.3227 0,0.41144 -0.0257,0.42899 -0.11132,0.8192 -0.26383,1.20274 -0.32689,0.82212 -0.9372,1.51239 -1.7143,1.9389 -0.50825,0.27896 -1.06092,0.43442 -1.65218,0.46475 -0.0631,0.003 -0.27909,0.004 -0.33679,0.002 z m 1.95706,-3.82249 v -1.81871 h -1.8187 -1.8187 v 1.81871 1.8187 h 1.8187 1.8187 z"
       id="path127" />
  </g>
</svg>
