<?xml version="1.0" encoding="UTF-8" standalone="no"?>
<!-- Created with Inkscape (http://www.inkscape.org/) -->

<svg
   width="8mm"
   height="8mm"
   viewBox="0 0 8 8"
   version="1.1"
   id="svg1"
   inkscape:version="1.3 (0e150ed, 2023-07-21)"
   sodipodi:docname="stop-icon.svg"
   xmlns:inkscape="http://www.inkscape.org/namespaces/inkscape"
   xmlns:sodipodi="http://sodipodi.sourceforge.net/DTD/sodipodi-0.dtd"
   xmlns="http://www.w3.org/2000/svg"
   xmlns:svg="http://www.w3.org/2000/svg">
  <sodipodi:namedview
     id="namedview1"
     pagecolor="#e0e0e0"
     bordercolor="#ffffff"
     borderopacity="1"
     inkscape:showpageshadow="0"
     inkscape:pageopacity="0"
     inkscape:pagecheckerboard="false"
     inkscape:deskcolor="#404040"
     inkscape:document-units="mm"
     inkscape:zoom="7.255477"
     inkscape:cx="12.128768"
     inkscape:cy="76.287197"
     inkscape:current-layer="layer1"
     showgrid="false" />
  <defs
     id="defs1" />
  <g
     inkscape:label="Layer 1"
     inkscape:groupmode="layer"
     id="layer1">
    <path
       id="path131"
       style="fill:#ffffff;stroke-width:0.999999"
       d="m 3.8450405,7.8135771 c -0.27787,-0.0134 -0.50603,-0.0459 -0.76098,-0.10862 -0.56132,-0.13797 -1.08694,-0.40516 -1.53376,-0.77965 -0.124898,-0.10468 -0.293828,-0.26851 -0.39938,-0.38731 -0.21859496,-0.24604 -0.40949096,-0.5261 -0.55717196,-0.81742 -0.523556,-1.03276 -0.546529,-2.25962 -0.06204,-3.31335 0.338641,-0.73653 0.90338296,-1.3457 1.61842196,-1.74573998 0.0837,-0.0468 0.2644,-0.13543 0.35136,-0.17229 0.4001,-0.1696 0.7788,-0.26081 1.23614,-0.29773 0.0786,-0.006 0.35902,-0.009 0.45385,-0.004 0.52999,0.0275 1.02878,0.15725 1.49957,0.39011 0.75093,0.3714 1.36139,0.98245998 1.733,1.73470998 0.22942,0.46442 0.35668,0.95026 0.38816,1.4819 0.005,0.0894 0.005,0.3227 0,0.41144 -0.0257,0.42899 -0.11132,0.8192 -0.26383,1.20274 -0.32689,0.82212 -0.9372,1.51239 -1.7143,1.9389 -0.50825,0.27896 -1.06092,0.43442 -1.65218,0.46475 -0.0631,0.003 -0.27909,0.004 -0.33679,0.002 z m 1.95706,-3.82249 v -1.81871 h -1.8187 -1.8187 v 1.81871 1.8187 h 1.8187 1.8187 z" />
  </g>
</svg>
